<svg xmlns="http://www.w3.org/2000/svg" viewBox="142.618 65.7215 484 915.3">
	<path d="M378.7414 973.3412C376.8337 969.1162 369.3293 952.6619 362.0649 936.776 333.4398 874.1781 332.2386 870.7394 336.2709 862.9308 337.4643 860.6199 343.2497 851.539 349.1276 842.7511 362.2672 823.106 363.8766 820.0359 363.8766 814.616 363.8766 812.0488 360.8782 803.51 356.4101 793.3533 351.9466 783.2072 348.6753 773.8933 348.2768 770.1967 347.6584 764.46 348.164 762.9044 355.2666 748.6877 359.4777 740.2589 367.1265 725.896 372.2639 716.77 385.6151 693.0532 387.1649 688.8295 387.2 676.064 387.2157 670.2376 386.3823 660.5585 385.3473 654.555 382.3804 637.3464 375.2099 611.1495 371.2577 603.0798 363.7769 587.8049 350.8959 574.9872 334.1989 566.203 329.706 563.8394 325.7657 561.9055 325.4427 561.9055 325.1594 594.359 323.9998 606.1525 322.2584 606.1525 321.7592 606.1525 320.6424 602.7238 319.7769 598.5332 315.7524 579.0489 304.2257 563.908 287.059 555.5569L277.2263 550.7736 276.4089 572.0103C275.914 584.8705 274.3384 601.1762 272.4143 613.3498 270.6668 624.4063 269.2372 634.9265 269.2372 636.7281 269.2372 641.0086 278.4832 656.7176 285.7781 664.8313 292.7021 672.5326 308.2113 683.1759 314.1261 684.2855L318.4006 685.0874V757.7124C318.4006 797.6561 317.9319 829.8119 317.3591 829.1697 316.7862 828.5275 304.5445 802.2835 290.1554 770.8497 275.7661 739.4159 252.9436 689.638 239.4385 660.2322 225.9335 630.8264 208.9376 593.7695 201.6696 577.8836 175.7732 521.2798 155.0927 476.2842 148.9024 463.0754L142.6183 449.6666 183.9445 359.8324C206.6738 310.4236 228.4666 263.0846 232.3727 254.6346 249.422 217.7534 291.5553 126.1914 303.8959 99.2035 321.0303 61.7322 319.4265 64.6258 321.7653 66.9646 323.2002 68.3995 323.7924 72.5426 324.2017 84.0079 324.8246 101.4583 325.7508 105.2349 331.685 114.519 335.5466 120.5606 339.295 129.8725 339.295 133.4242 339.295 134.1432 336.9443 132.1688 334.0714 129.0364 331.1984 125.9041 326.912 122.7151 324.546 121.9498 320.6165 120.6787 320.016 120.8218 317.6074 123.6031 312.4713 129.5337 301.9268 166.1504 284.8292 237.4273 270.7268 296.218 267.9929 313.0138 271.2416 320.9037 272.1929 323.214 277.7036 330.0135 283.4879 336.0136 293.7419 346.6505 297.5641 352.7979 299.3742 361.5647L300.2624 365.8665 292.426 358.3723C288.116 354.2505 282.7324 349.9177 280.4624 348.7438 274.5363 345.6793 264.628 344.9117 259.3678 347.1095L255.0472 348.9148 249.2231 378.8996C239.1272 430.8778 238.1139 443.4857 243.3416 452.0818 248.214 460.0938 263.3427 463.8306 280.2989 461.2103 293.3374 459.1954 297.8353 456.7452 299.2871 450.8664 300.2731 446.8737 300.009 445.3053 297.579 440.7247 294.8634 435.6055 288.3849 428.8089 281.528 423.8851 278.4622 421.6836 278.4714 421.6802 285.596 422.3681 304.3928 424.183 323.819 442.6505 331.2921 465.8091 332.4514 469.4019 333.6789 472.0625 334.0198 471.7216 335.5178 470.2236 331.6292 450.3712 328.2732 442.3837 326.249 437.5659 324.7519 433.4649 324.9465 433.2703 325.5973 432.6195 334.9392 439.2786 339.6796 443.7724 342.2572 446.2159 345.543 450.1105 346.9816 452.4272 351.2774 459.3455 350.7315 455.0272 345.3481 439.506 334.3395 407.7664 333.9856 406.273 333.8708 391.0627 333.7685 377.5949 333.9508 376.5356 337.7078 368.6026 345.256 352.6673 358.1533 342.9965 384.7711 333.3131 403.2202 326.6014 411.702 321.9936 419.2084 314.6047 427.697 306.249 429.5507 302.3275 429.5458 292.7361 429.5458 283.2221 426.6946 276.9284 419.4276 270.3631 408.3049 260.3144 394.5083 255.1884 381.1562 256.1437 371.4046 256.8414 364.5867 259.7238 354.3251 267.4871 345.0286 274.5202 340.2029 281.2157 337.4036 290.9647 334.8888 299.7225 334.9424 299.6504 332.4749 297.6025 329.2713 294.9438 325.9648 287.3824 325.076 280.6831 324.3118 274.9221 324.5504 274.0334 328.0459 269.62 333.2617 263.0347 334.3787 259.528 334.3787 249.7402 334.3787 242.0882 334.9683 240.104 340.8314 228.0263L347.2841 214.734 346.9099 194.821C346.5633 176.3697 346.733 174.5186 349.2214 169.6025 352.5351 163.0555 356.5875 157.2126 357.3118 157.9369 357.6095 158.2347 357.2266 162.0805 356.4592 166.4832 355.3123 173.0689 355.4024 175.8042 356.9672 181.9122 359.9601 193.5947 366.1213 208.5692 369.3832 212.0889 372.3118 215.2489 372.645 215.3039 388.8845 215.3039 409.0824 215.3039 419.4434 212.7288 424.823 206.3719L428.1856 202.3985 427.2815 206.0858C426.2217 210.4086 423.0396 214.0763 416.8703 218.0859 399.5444 229.3467 394.8421 232.8414 393.4063 235.5243 391.0311 239.9622 392.9883 241.6108 405.278 245.5241 422.4184 250.982 434.9439 260.8621 441.5464 274.1327 443.9652 278.9944 444.3815 281.7254 444.3815 292.7362 444.3815 304.2763 444.0203 306.4126 440.9681 312.9302 433.8194 328.1951 426.7113 334.2587 398.1907 349.4216 376.3016 361.059 373.7365 362.8813 369.8513 369.5539 367.6694 373.3011 367.0047 376.2573 367.0562 381.985 367.1375 390.9749 367.766 392.1516 385.4 416.3077 402.94 440.3349 405.8711 445.9901 412.7675 469.1096L413.8673 472.7969 415.4661 467.8806C418.761 457.7487 424.0449 449.1291 430.6016 443.1906 438.1628 436.3423 445.8607 431.4175 444.6582 434.1978 439.0983 447.0531 436.5461 455.6195 435.9045 463.5788 435.1004 473.5566 435.6305 473.2124 440.1358 460.8311 444.9314 447.6522 454.9877 435.342 467.2147 427.6828 471.4691 425.0178 482.6534 421.7747 487.315 421.8544L491.0865 421.9188 488.0137 424.0052C481.7473 428.2602 474.2164 435.9513 471.932 440.4291 466.9603 450.1744 469.6745 456.292 480.3891 459.4904 488.8105 462.0043 508.7537 462.383 515.1421 460.1504 521.3701 457.9738 526.9287 451.708 528.771 444.7874 530.6745 437.6372 529.1457 425.7992 520.3427 379.5202L514.5233 348.9269 510.5261 347.2567C500.2212 342.9511 489.5845 346.4457 477.3352 358.1613L469.2792 365.8664 470.1674 361.5646C471.9762 352.8041 475.7337 346.8056 486.4759 335.5295 499.9177 321.4197 500.9677 318.8526 499.0459 304.7981 497.0445 290.1605 490.2925 259.1869 480.6086 220.22 465.0136 157.4671 456.5003 128.8089 451.9348 123.6944 449.5084 120.9763 448.9044 120.8492 444.3812 122.1055 440.8362 123.09 438.3198 124.9915 435.3601 128.9222 433.1024 131.9204 430.992 134.1102 430.6702 133.7884 429.3449 132.463 433.2649 122.1023 438.5019 113.0892L444.0939 103.465 445.2952 85.9466C446.4157 69.605 447.7782 63.8797 449.988 66.2252 450.4928 66.7608 455.3174 76.8781 460.7098 88.7081 466.102 100.538 481.8572 134.8295 495.7214 164.9113 537.6438 255.8728 620.8761 436.743 623.8287 443.2987L626.5965 449.4441 587.4108 534.8654C565.8587 581.8471 543.0128 631.625 536.6422 645.4829 484.9301 757.9711 453.1783 827.1605 452.3182 829.2309 451.7566 830.5829 451.2619 798.7036 451.219 758.3881L451.1416 685.0871 455.2964 684.3077C461.1685 683.2061 473.8497 674.6799 481.838 666.4626 485.5728 662.6207 491.4448 654.7151 494.8867 648.8946L501.1449 638.3119 499.5079 628.0702C494.7661 598.4035 493.8533 590.301 493.1179 571.3445L492.316 550.6712 482.3947 555.6405C465.0355 564.3354 453.7701 579.1443 449.7653 598.533 448.8998 602.7236 447.8275 606.1523 447.3823 606.1523 445.3475 606.1523 443.445 587.0979 444.2449 574.7269L445.0807 561.7985 441.1198 563.8468C435.4605 566.7733 424.8382 577.767 421.6707 583.9758 414.8627 597.3206 414.0769 607.5905 417.3018 641.0714 421.4487 684.1227 421.2263 684.9834 395.8465 724.1444 375.8563 754.989 370.8772 764.119 370.7973 770.0757 370.7606 772.8673 373.1335 783.4476 376.0719 793.5876 379.0104 803.7275 381.4156 813.9894 381.4168 816.3918 381.4168 821.3207 379.5506 824.5818 363.8466 847.0527 347.1306 870.9721 346.8124 872.0342 352.8057 883.907 357.4817 893.1702 362.9267 899.3686 369.1982 902.5682 373.4335 904.7288 375.8168 905.0146 385.9072 904.5713 399.5358 903.9727 405.8269 901.3829 418.9691 890.9615L426.7419 884.7979 424.9424 888.9706C421.7014 896.4859 392.5333 961.7424 388.0548 971.4974 385.6497 976.7364 383.3507 981.0228 382.946 981.0228" fill="#000000"/>
</svg>